<?xml version="1.0" encoding="UTF-8"?>
<svg id="Layer_2" data-name="Layer 2" xmlns="http://www.w3.org/2000/svg" xmlns:xlink="http://www.w3.org/1999/xlink" viewBox="0 0 162.86 162.86">
  <defs>
    <style>
      .cls-1 {
        fill: none;
      }

      .cls-2 {
        clip-path: url(#clippath);
      }

      .cls-3 {
        fill: #f3b55a;
      }

      .cls-4 {
        fill: #65cdec;
      }

      .cls-5 {
        fill: #f1615c;
      }
    </style>
    <clipPath id="clippath">
      <rect class="cls-1" x="18.47" y="18.47" width="125.91" height="125.91" rx="18.35" ry="18.35" transform="translate(81.43 -33.73) rotate(45)"/>
    </clipPath>
  </defs>
  <g id="Layer_1-2" data-name="Layer 1">
    <g class="cls-2">
      <g>
        <path class="cls-3" d="m76.85,51.85c-.02,4.65-2.84,8.37-7.31,9.64-.59.17-1.2.28-1.76.51-2.14.89-2.76,3.42-1.11,5.05,2.82,2.77,5.8,5.38,8.62,8.15,1.63,1.6,3.2,3.3,4.57,5.12.33.44.07,1.81-.4,2.28-3.52,3.58-7.15,7.05-10.75,10.55-.22.21-.45.42-.65.65-2.39,2.66-2.17,2.57-3.62-.83-3.18-7.47-10.21-10.94-18.37-6-6.36,3.85-7.05,13.5-1.58,18.39,1.52,1.36,3.52,2.25,5.4,3.13,1.64.77,1.83,1.42.51,2.78-3.06,3.17-6.07,6.4-9.16,9.55-1.06,1.08-2.29,2.02-3.5,2.95-.28.21-.98.3-1.18.11-1.51-1.36-2.94-2.8-4.39-4.23-.76-.75-1.51-1.51-2.26-2.27-4.13-4.13-8.27-8.26-12.4-12.39-6.19-6.19-12.37-12.38-18.56-18.57-1.16-1.17-2.29-2.37-3.49-3.5-1.72-1.61-1.43-2.71.83-4.82,4.34-4.06,8.56-8.25,12.83-12.39,3.78-3.66,7.59-7.27,11.32-10.98,3.17-3.16,6.22-6.46,9.36-9.66,2.13-2.17,4.34-4.26,6.46-6.43.9-.92,1.61-.92,2.49.03,2.85,3.06,5.7,6.12,8.64,9.09,1.44,1.46,3,2.84,4.66,4.05,1.74,1.26,4.31.01,5.01-2.26.67-2.21,1.45-4.27,3.46-5.78,3.38-2.53,8.33-2.76,11.83-.37,2.99,2.05,4.63,4.78,4.52,8.46Z"/>
        <path class="cls-5" d="m124.82,126.86c-2.19,2.21-4.4,4.4-6.55,6.65-2.94,3.06-5.78,6.22-8.78,9.23-2.73,2.74-5.66,5.28-8.39,8.01-3.32,3.33-6.51,6.8-9.8,10.17-.95.97-2.1,1.75-3.09,2.7-1.8,1.73-3.59,3.49-5.3,5.31-.72.77-1.15.67-1.82-.04-2.68-2.87-5.37-5.74-8.15-8.52-2.67-2.67-5.52-5.16-8.19-7.84-3.21-3.22-6.28-6.58-9.48-9.82-1.39-1.4-3.02-2.56-4.39-3.98-2.47-2.55-4.78-5.26-7.23-7.83-1.15-1.21-2.45-2.29-3.73-3.37-1.18-1-1.32-1.84-.11-3.01,3.87-3.75,7.65-7.59,11.47-11.38.21-.21.55-.32.7-.55.63-.95,1.75-1.96,1.7-2.91-.07-1.48-1.07-2.63-2.77-3.22-1.76-.6-3.5-1.55-4.98-2.68-4.16-3.18-4.12-9.92-.48-13.79,3.45-3.68,7.31-4.09,11.67-2.46,3.05,1.14,4.37,3.78,5.39,6.68.37,1.05,1.12,2.09,1.95,2.84,1.2,1.08,2.46.87,3.65-.33,3.94-4,7.93-7.95,11.9-11.92q2.18-2.18,4.32-.05c3.77,3.76,7.55,7.51,11.3,11.29,1.54,1.55,1.33,2.11-.68,2.74-8.21,2.61-11.81,11.08-7.49,18.18.16.26.3.53.45.8.28.21.51.46.72.74,4.77,5.05,11.74,5.47,17.16,1.25,2.01-1.56,2.86-3.66,3.71-5.84.79-2.05,1.1-2.18,2.89-.95.37.26.73.56,1.04.89,3.81,4.02,7.61,8.06,11.41,12.09.19.3.19.6,0,.91Z"/>
        <path class="cls-4" d="m67.44,39.67c-5.01-.58-10.37,3.29-12.18,8.14-.16.43-.33.86-.48,1.29-.48,1.36-1.22,1.75-2.34.62-2.69-2.71-5.38-5.44-8.07-8.15-1.34-1.35-2.63-2.75-4.06-4-1.08-.94-.91-1.82-.2-2.79.31-.43.71-.81,1.1-1.18,2.97-2.83,6.01-5.59,8.91-8.49,3.11-3.12,6.04-6.42,9.15-9.55,2.73-2.74,5.65-5.29,8.39-8.02,3.28-3.28,6.44-6.68,9.7-9.98,1.39-1.41,2.88-2.72,4.4-3.99.3-.25,1.11-.31,1.37-.09,1.46,1.21,2.83,2.53,4.21,3.84.22.2.3.54.51.75,3.36,3.3,6.75,6.56,10.08,9.88,2.85,2.85,5.62,5.78,8.44,8.66,5.74,5.87,11.49,11.73,17.25,17.58,2.15,2.19,2.14,2.74-.19,4.94-3.42,3.23-6.85,6.45-10.21,9.74-3.18,3.1-2.49,5.44,1.5,7.15,4.32,1.84,6.67,4.08,6.84,9.55.14,4.45-1.86,7.58-6.14,9.18-1.51.57-3.18,1-4.78,1-3.5,0-7.24-3.22-8.28-6.62-.37-1.21-.87-2.54-1.74-3.38-1.17-1.14-2.85-1.25-4.17-.09-1.7,1.5-3.24,3.19-4.86,4.79-2.76,2.74-5.56,5.43-8.26,8.22-1.03,1.06-1.85.51-2.54-.18-1.25-1.23-2.29-2.67-3.53-3.9-2.98-2.94-6.03-5.79-9.02-8.72-.32-.32-.6-.99-.47-1.36.13-.38.74-.65,1.19-.86,1.51-.71,3.09-1.3,4.57-2.07,6.13-3.21,6.86-13.61,1.97-18.16-2.22-2.07-4.77-4.06-8.06-3.75Z"/>
      </g>
    </g>
  </g>
</svg>