<svg id="Layer_2" data-name="Layer 2" xmlns="http://www.w3.org/2000/svg" viewBox="0 0 196.25 294.37">
  <defs>
    <style>
      .cls-1 {
        fill: #619299;
      }
    </style>
  </defs>
  <g id="Layer_1-2" data-name="Layer 1">
    <g>
      <path class="cls-1" d="m129.87.19c-.74,3.97-1.81,7.91-2.13,11.91-.54,6.69-.82,13.42-.81,20.13.03,9.55,2.72,19.01,1.15,28.61-.95,5.81-1.7,11.72-3.42,17.31-3.02,9.83-6.28,19.63-10.23,29.11-5.78,13.87-13.79,26.36-25.37,36.3-1.05.9-1.71,2.65-1.9,4.09-1.46,11.21-2.81,22.43-4.09,33.66-.95,8.34-1.72,16.71-2.63,25.06-.84,7.69-1.88,15.35-2.6,23.05-.69,7.37-1.26,14.76-1.58,22.16-.42,9.73-.67,19.47-.73,29.21-.02,3.63.82,7.26.99,10.9.04.84-.85,2.15-1.64,2.49-1.18.5-2.47.08-2.85-1.54-.19-.8-.67-1.56-.76-2.36-.29-2.73-.73-5.48-.65-8.21.38-12.56.83-25.12,1.42-37.67.31-6.56.88-13.11,1.51-19.65,1.18-12.25,2.41-24.5,3.75-36.73,1.14-10.33,2.47-20.64,3.73-30.96.52-4.29,1.16-8.57,1.55-12.87.13-1.42-.25-2.92-.55-4.36-1.05-4.94-2.8-9.83-3.14-14.82-.73-10.8-.18-21.55,1.37-32.35,2.83-19.76,11.36-36.65,22.99-52.57,8.9-12.19,16.6-25.27,24.83-37.94.47-.73.97-1.43,1.46-2.14.11.06.22.13.32.19Z"/>
      <path class="cls-1" d="m9.19,61.35c4.17,3.99,7.69,8.24,12.05,11.3,5.54,3.89,11.66,7,17.71,10.11,7.59,3.9,13.47,9.6,18.73,16.18,6.69,8.37,12.07,17.53,16.15,27.37,4.46,10.76,6.29,22.03,4.6,33.68-.1.65-1.39,1.57-2.18,1.62-4.84.28-9.4-1.15-13.73-3.05-11-4.85-20.1-12.26-28-21.26-6-6.84-10.63-14.51-13.22-23.2-1.66-5.55-2.42-11.37-3.63-17.06-1.26-5.93-2.44-11.87-3.89-17.76-1.37-5.56-3.05-11.04-4.57-16.56-.1-.37-.01-.79-.01-1.37Z"/>
      <path class="cls-1" d="m196.25,129.85c-6.65,2.92-13.01,5.94-18.51,10.44-3.6,2.94-6.89,6.27-10.38,9.35-6.23,5.5-13.67,8.7-21.49,11.23-11.73,3.8-23.72,5.84-36.06,5.37-7.01-.27-13.84-1.42-20.24-4.63-2.03-1.02-2.06-2-1.28-3.68,2.66-5.75,7.02-10.1,11.77-14.06,10.22-8.52,22.07-13.8,34.94-16.83,7.06-1.66,14.19-1.28,21.33-.32,6.26.84,12.54,1.56,18.83,2.02,6.22.45,12.47.49,18.71.74.8.03,1.6.24,2.39.37Z"/>
      <path class="cls-1" d="m165.58,183.24c-1.45.69-2.87,1.49-4.37,2.04-5.52,2.01-10.19,5.38-14.13,9.56-7.37,7.8-16.71,11.57-26.82,13.9-6.58,1.51-13.26,2.47-20.05,2.07-5.43-.32-10.67-1.41-15.68-3.7-1.81-.83-1.96-1.62-1.1-3.21,2.73-4.99,6.54-8.96,11.06-12.35,7.1-5.32,15-8.91,23.61-10.91,6.26-1.45,12.58-.63,18.88-.13,8.62.68,17.23,1.33,25.85,1.98.87.07,1.74.1,2.61.15.04.2.08.4.13.61Z"/>
      <path class="cls-1" d="m.59,159.37c2.67,1.09,5.25,2.56,8.02,3.17,4.44.98,8.99,1.75,13.53,1.96,9.49.43,17.7,4.16,25.51,9.09,8.67,5.47,16.46,11.91,21.78,20.86,1.35,2.27,2.37,4.76,3.44,7.19.73,1.67.34,3.13-1.69,3.26-5.2.33-10.53,1.3-15.59.54-10.3-1.56-20.08-5.21-27.92-12.34-4.2-3.81-7.53-8.59-11.14-13.04-4.4-5.42-8.66-10.97-13.03-16.42-1.05-1.3-2.32-2.43-3.49-3.63.2-.21.39-.43.59-.64Z"/>
      <path class="cls-1" d="m20.25,225.11c.85-.17,1.22-.3,1.59-.31,5.99-.14,11.97-.33,17.96-.38,7.64-.07,15.09,1.03,22.04,4.37,3.58,1.72,5.95,4.65,7.63,8.26.72,1.55.52,2.73-.82,3.37-3.26,1.55-6.53,3.52-10,4.14-6.72,1.19-12.99-.61-18.57-4.73-5.94-4.4-11.98-8.66-17.97-13-.56-.41-1.03-.94-1.86-1.71Z"/>
      <path class="cls-1" d="m126.43,217.41c-6.21,5.82-11.86,11.74-18.17,16.83-4.93,3.97-10.37,7.48-16.88,8.74-3.74.72-7.14-.17-10.36-1.76-.76-.37-1.35-2.34-1.09-3.32,2.55-9.64,11.23-16.64,19.92-17.65,7.84-.91,15.67-1.9,23.51-2.82.96-.11,1.94-.02,3.07-.02Z"/>
    </g>
  </g>
</svg>