<!-- <?xml version="1.0" encoding="UTF-8"?> -->
<svg id="Layer_2" data-name="Layer 2" xmlns="http://www.w3.org/2000/svg" viewBox="0 0 315.02 551.26">
  <defs>
    <style>
      .cls-1 {
        fill: #5f939a;
      }
    </style>
  </defs>
  <g id="Layer_1-2" data-name="Layer 1">
    <path class="cls-1" d="m134.59,404.63c.84-.12,1.47-.84,1.49-1.7.11-12.11.11-24.28,0-36.49-.57-65.58-1.06-132.54-1.48-200.88-.04-5.38,3.43-10.56,8.1-12.9,5.32-2.66,12.86-.8,16.42,4.33,2.02,2.9,3.04,5.89,3.07,8.96.68,69.78,1.15,141.61,1.42,215.48.03,7.7,0,15.83-.1,24.39-.17,14.33-11.18,23.09-24.39,25.43-8.99,1.59-18.35,1.36-28.1-.68-43.96-9.22-78.66-42.82-96.45-84.06-7.65-17.73-12.25-35.8-13.8-54.22-2.48-29.33,1.04-58.51,10.56-87.53,6.83-20.81,15.43-40.42,26.53-58.73C66.46,98.86,102.55,56.77,132.36,10.1,136.04,4.34,142.65.21,149.71,0c15.64-.44,21.7,14.11,29.13,25.12,6.1,9.04,11.93,17.41,17.48,25.11,19.75,27.42,37.04,51.53,51.87,72.33,8.09,11.34,16.23,23.48,24.42,36.41,22.8,35.98,38.98,78.32,42.09,120.58.25,3.35.35,10.15.31,20.4-.05,16.32-2.37,31.19-6.91,46.82-14.84,51.1-59.2,89.31-105.92,110.92-6.01,2.78-11.73,5.31-17.18,7.58-2.04.85-5.56,2.88-6.19,5.27-.27,1.01-.43,2.03-.48,3.06-1.14,19.72-.82,40.02-.18,59.52.15,4.79-.25,8.24-1.21,10.35-1.92,4.22-4.94,6.71-9.04,7.46-3.46.62-8.2.54-11.18-1.64-6.2-4.52-6.12-10.13-6.3-18.3-.39-18.18-.43-34.64-.11-49.39.16-7.32.73-13.27,1.72-17.85,2.65-12.37,13.14-20.66,24.73-25.31,47.44-18.98,94.9-54.49,106.82-107.08,6.51-28.73,4.92-57.91-2.63-85.87-6.51-24.1-16.41-46.87-29.69-68.32-10.59-17.1-24.33-37.25-41.23-60.44-14.25-19.57-29.31-40.54-45.18-62.9-4.6-6.48-8.96-13.13-13.07-19.94-.34-.56-1.08-.74-1.64-.39-.15.09-.28.22-.37.36-8.71,13.47-17.89,26.74-27.55,39.79-19.19,25.95-37.78,50.75-55.41,78.24-37.17,57.92-55.95,134.49-19.96,197.4,16.01,27.97,45.91,52.59,79.05,55.56,2.85.25,5.75.18,8.7-.23Z"/>
  </g>
</svg>