<svg id="Layer_2" data-name="Layer 2" xmlns="http://www.w3.org/2000/svg" viewBox="0 0 898.85 628.14">
  <defs>
    <style>
      .cls-1 {
        fill: #b6cd44;
      }

      .cls-2 {
        fill: #4a9d77;
      }
    </style>
  </defs>
  <g id="Layer_1-2" data-name="Layer 1">
    <g>
      <path class="cls-2" d="m507.31,553.05C325.75,631.59,50.74,636.21,0,397.96c75.05,146.47,262.62,172.52,407.56,129.36,151.71-45.91,398.57-163.67,491.28,31.91-106.74-103.21-269.08-49.28-391.53-6.18Z"/>
      <path class="cls-2" d="m372.43,131.11c-2.15-28.71-1.64-67.97,5.36-93.97,2.24-8.32,8-49,19.78-33.76,116.49,150.68,122.74,305.37,41.85,457.97,28-156.3-37.45-198.77-66.99-330.24Z"/>
      <path class="cls-1" d="m425.43,453.22c-.89-2.5-2.16-4.94-2.62-7.52-3.2-17.99-9.22-34.84-17.48-51.24-7.38-14.66-15.73-28.62-25-42.02-8.08-11.69-17.23-22.5-27.61-32.46-13.96-13.39-29.38-24.81-44.37-36.85-14.93-11.99-29.65-24.26-43.72-37.33-13.15-12.21-26.02-24.56-37.55-38.35-9.72-11.61-17.18-24.58-24.09-37.88-4.5-8.66-8.67-17.59-11.95-26.77-4.17-11.67-7.36-23.7-10.81-35.62-.48-1.65-.07-3.57-.07-6.27,76.32,22.36,139.55,63.02,184.68,128.05,46.54,67.05,67.42,142.1,62.45,223.69-.62.19-1.24.38-1.86.57Z"/>
      <path class="cls-2" d="m546.23,214.57c10.39-51.64,41.15-96.38,81.08-130.08,39.9,150.1-52.96,306.05-175.01,387.11,22.78-42.65,52.06-82.58,65.68-130.05,15.28-40.86,18.51-86.52,28.25-126.97Z"/>
      <path class="cls-1" d="m140.16,283.4c72.6,3.02,145.31,27.8,199.79,76.41,27.94,23.2,60.76,60.07,71.47,94-14.28-8.87-26.43-26.62-42.76-35.5-65.36-46.95-150.14-41.61-219.33-79.38-22.45-10.5-39.62-27.67-57.51-44.37-9.24-9.52,42.57-9.91,48.35-11.16Z"/>
      <path class="cls-2" d="m755.52,257.24c.12,8.75-3.9,15.39-6.7,22.36-7.48,18.61-16.52,36.43-28.14,52.81-7.31,10.3-15.09,20.23-23.76,29.5-11.01,11.77-22.79,22.64-35.81,32.07-23.55,17.07-47.63,33.3-74.17,45.54-15.52,7.16-31.59,12.77-47.64,18.57-16.94,6.13-34.67,8.3-51.84,13.05-2.06.57-4.2,1.02-6.35.15-.61-1.72.41-2.52,1.71-3.01,17.28-6.59,31.76-17.94,46.84-28.11,20.84-14.06,39.66-30.75,56.93-49.02,7.79-8.24,14.62-17.38,21.88-26.13,7.7-9.28,14.77-19.06,22.91-28,11.34-12.45,22.66-25.02,35.82-35.47,15.74-12.5,32.68-23.13,51.79-30.36,11.91-4.51,24.73-6.62,36.53-13.95Z"/>
      <path class="cls-1" d="m412.54,469.34c-46.92,5.32-92.35,13.82-139.58,9.47-38.66-2.78-77.52-5.68-114.19-19.3-20.2-7.2-41.55-11.25-60.72-21.48-4.77-3.05-13.12-4.48-14.95-10.23,84.86-21.41,257.6-13.8,329.43,41.54Z"/>
      <path class="cls-1" d="m876.12,560.6c-4.76,1.05-8.04.89-11.12-.01-13.1-3.81-26.27-6.56-39.97-7.93-11.58-1.16-23.03-4-34.78-4.75-15.82-1.01-31.62-.7-47.43-.25-22.17.63-43.79,5.23-65.41,9.58-13.11,2.64-26.22,5.41-39.13,8.88-27.89,7.49-55.7,15.27-83.44,23.31-13.69,3.97-27.3,8.38-41.01,12.15-13.36,3.68-26.87,7.08-40.27,10.69-24.81,6.68-50.37,8.31-75.55,12.46-21.96,3.62-43.95,3.05-65.98,3.4-7.8.13-14.79-.6-22.24-1.98-4.4-.82-9.46-.84-13.5-5.04,2.86,0,5.71-.05,8.57,0,29.85.65,59.41-1.93,88.57-8.29,18.63-4.06,37.48-7.65,55.6-13.45,19.69-6.29,39.11-13.12,59.02-19.29,12.74-3.95,24.03-7.21,35.9-11.27,12.62-4.31,25.19-8.84,37.78-13.22,12.81-4.46,25.97-7.95,38.91-12.17,17.33-5.66,34.79-11.26,52.81-14.34,11.34-1.94,22.34-2.94,33.22-4.37,21.94-2.87,43.85-3.75,65.66-2.09,15.82,1.2,32.02,3.48,46.93,9.37,8.63,3.41,17.63,5.9,26.01,9.87,10.5,4.97,20.3,11.16,30.86,18.73Z"/>
      <path class="cls-1" d="m544.12,221.64c.08.25.15.5.23.76-.37.07-.74.13-1.11.19-.22-.8,0-1.2.89-.95Z"/>
      <path class="cls-1" d="m507.31,553.05c.23-.23.46-.45.68-.67.11.57.23,1.13-.68.67Z"/>
      <polygon class="cls-1" points="494.33 557.1 494.26 557.1 494.29 557.54 494.33 557.1"/>
    </g>
  </g>
</svg>